# xmcd
#
# Track frame offsets:
#	150
#	17478
#	29070
#	41563
#	55073
#	75767
#	99343
#	113733
#	128650
#	144482
#	166900
#	179221
#	193840
#	213049
#	226103
#	242842
#	261238
#	280541
#	296110
#
# Disc length: 4161 seconds
#
# Revision: 0
# Processed by: cddbd v1.4PL0 Copyright (c) Steve Scherf et al.
# Submitted via: dBpowerAMP V4.0
#
DISCID=03103f13
DTITLE=Chris LeDoux - 20 Greatest Hits
DYEAR=1900
DGENRE=Country
TTITLE0=Life Is A Highway
TTITLE1=Whatcha Gonna Do With A Cowboy (Duet With Garth Brooks)
TTITLE2=Gravitational Pull
TTITLE3=Dallas Days And Ft. Worth Nights
TTITLE4=Country Fair
TTITLE5=Bang A Drum
TTITLE6=Stampede
TTITLE7=Look At You  Girl
TTITLE8=Cadillac Cowboy
TTITLE9=Hooked On A 8 Second Ride
TTITLE10=Thougher Then All The Rest
TTITLE11=Coenhagen
TTITLE12=Even Cowboys Like A Little Rock And Roll
TTITLE13=This Cowboys Hat
TTITLE14=Cadillac Ranch
TTITLE15=Five Dollar Fine
TTITLE16=Honky Tonk World
TTITLE17=Little Long Haired Outlaw
TTITLE18=For Your Love
EXTD=
EXTT0=
EXTT1=
EXTT2=
EXTT3=
EXTT4=
EXTT5=
EXTT6=
EXTT7=
EXTT8=
EXTT9=
EXTT10=
EXTT11=
EXTT12=
EXTT13=
EXTT14=
EXTT15=
EXTT16=
EXTT17=
EXTT18=
PLAYORDER=
